<svg xmlns="http://www.w3.org/2000/svg" xml:space="preserve" width="44" height="50" style="shape-rendering:geometricPrecision;text-rendering:geometricPrecision;image-rendering:optimizeQuality;fill-rule:evenodd;clip-rule:evenodd" viewBox="0 0 3.95 4.49"><path d="M1.53 3.08a4.57 4.57 0 0 1-.63-.4 2.62 2.62 0 0 1-.66-.73c-.16-.29-.26-.62-.24-.93C.02.74.14.48.38.27.43.23.48.2.54.16c.21-.12.46-.18.7-.15.25.03.5.15.71.39.01.02.02.03.03.04.01-.01.02-.02.03-.04.2-.24.45-.36.7-.39.25-.03.5.03.7.15.06.04.11.07.16.11.24.21.36.47.38.75.02.31-.08.64-.24.93-.15.26-.37.5-.66.73-.18.14-.39.27-.63.4l.01 1.41h-.9V3.08zM.37 1.62h.07c.03 0 .06-.01.09-.04.02-.03.03-.06.03-.09v-.17c0-.18.11-.3.24-.35a.401.401 0 0 1 .3 0c.13.05.23.17.23.35v.38c0 .06.04.1.08.11.01.01.03.01.05.01.02 0 .04 0 .06-.01.04-.01.07-.05.07-.11v-.38c0-.18.1-.3.23-.35a.415.415 0 0 1 .31 0c.13.05.23.17.23.35v.38c0 .06.03.1.07.11.02.01.04.01.06.01.02 0 .04 0 .06-.01.04-.01.07-.05.07-.11v-.38c0-.18.1-.3.23-.35.05-.02.1-.03.15-.03.05 0 .11.01.16.03.13.05.23.17.23.35v.17c0 .04.01.07.04.09.02.03.05.04.09.04h.07c.08-.19.12-.39.1-.58A.778.778 0 0 0 3.4.47L3.28.38a.917.917 0 0 0-.54-.12c-.19.03-.38.12-.54.31-.04.05-.08.1-.11.16a.12.12 0 0 1-.05.05c-.06.03-.14.01-.17-.05-.04-.06-.08-.11-.12-.16a.866.866 0 0 0-.54-.31.917.917 0 0 0-.54.12L.55.47C.36.63.28.83.26 1.04c-.02.19.03.39.11.58zm3.09.25a.358.358 0 0 1-.22-.11.414.414 0 0 1-.11-.27v-.17c0-.06-.03-.1-.07-.11-.02-.01-.04-.01-.06-.01v-.01c-.02 0-.04.01-.05.02-.04.01-.07.05-.07.11v.38c0 .18-.11.3-.24.35a.401.401 0 0 1-.3 0 .365.365 0 0 1-.24-.35v-.38c0-.06-.03-.1-.07-.11-.01-.01-.03-.01-.05-.01-.02 0-.04 0-.06.01-.04.01-.07.05-.07.11v.38c0 .18-.1.3-.23.35-.05.02-.11.03-.16.03s-.1-.01-.15-.03a.357.357 0 0 1-.23-.35v-.38c0-.06-.03-.1-.07-.11C.99 1.2.97 1.2.95 1.2v-.01c-.02 0-.04.01-.06.02-.04.01-.07.05-.07.11v.17c0 .1-.04.2-.1.27H.71a.36.36 0 0 1-.21.11c.13.22.32.42.56.61.25.19.55.37.92.53.36-.16.66-.34.91-.53s.43-.39.57-.61zM1.78 4.23h.39v-1l-.19.11-.2-.11v1z" style="fill:#ffa4b9;fill-rule:nonzero"/></svg>