<svg xmlns="http://www.w3.org/2000/svg" xml:space="preserve" width="50" height="50" style="shape-rendering:geometricPrecision;text-rendering:geometricPrecision;image-rendering:optimizeQuality;fill-rule:evenodd;clip-rule:evenodd" viewBox="0 0 5.03 5.03"><path d="m.4 1.94.02.13c.2.64.82 1.09 1.54 1.09.71 0 1.33-.45 1.54-1.1l.02-.12H.4zm3.66 2.75c.04.02.09.02.13.01.37-.04.68-.62.51-.96-.03-.06-.08-.12-.15-.14-.14-.04-.34.03-.46.1-.09.04-.17.04-.26 0-.03-.02-.06-.03-.09-.04-.19-.08-.41-.14-.52.08-.17.34.14.92.51.96.05.01.09.01.13-.01a.34.34 0 0 1 .2 0zM1.79 1.62c.16-.29.1-.77-.16-.94a.288.288 0 0 0-.2-.05c-.14.04-.28.2-.36.32a.27.27 0 0 1-.22.13H.76c-.21.03-.43.1-.42.34.01.07.02.14.06.2h1.39zm2.04 1.76c-.07-.02-.13-.05-.2-.06l.29-1.7h-.26c.09-.24.09-.5-.01-.71-.19-.36-.53-.36-.84-.24.02-.05.03-.11.05-.15A.87.87 0 0 1 3 .23c.05-.07.03-.16-.03-.2a.141.141 0 0 0-.2.03c-.08.11-.14.23-.18.36-.03.08-.05.17-.07.26-.18-.07-.37-.11-.54-.05a.855.855 0 0 0-.19-.19C1.45.22 1.16.39.94.65.93.6.91.54.91.49A.879.879 0 0 1 .89.17.146.146 0 0 0 .76.01a.15.15 0 0 0-.15.13C.59.27.6.41.63.55.64.63.67.72.7.8c-.34.05-.66.22-.64.63 0 .07.01.13.03.19H0l.57 3.41h2.77l.03-.16c.1.06.21.1.33.12.09.01.17 0 .26-.03.09.03.17.04.26.03.58-.07.99-.87.73-1.38-.18-.35-.52-.35-.83-.24.01-.05.03-.1.04-.15.04-.11.09-.21.15-.29.04-.07.03-.16-.04-.2-.06-.05-.15-.03-.19.03-.08.11-.14.23-.19.37-.02.08-.04.16-.06.25zm-.55-.05a.52.52 0 0 0-.31.28c-.15.29-.08.67.11.95l-.03.15H.86l-.3-1.8c.35.36.84.58 1.4.58.55 0 1.05-.22 1.39-.58l-.07.42zM2.1 1.62h1.25c.1-.19.13-.41.05-.58C3.36.98 3.32.92 3.25.9c-.14-.04-.34.03-.47.1-.08.04-.17.04-.25 0C2.5.98 2.47.97 2.44.95 2.33.91 2.21.87 2.11.89c.07.23.07.5-.01.73z" style="fill:#fea5b9"/></svg>