<svg xmlns="http://www.w3.org/2000/svg" xml:space="preserve" width="33" height="50" style="shape-rendering:geometricPrecision;text-rendering:geometricPrecision;image-rendering:optimizeQuality;fill-rule:evenodd;clip-rule:evenodd" viewBox="0 0 2.62 3.97"><path d="m.27 1.83.01.08c.14.45.55.76 1.03.76s.89-.31 1.03-.76l.01-.08H.27zm2.35-.23H0l.38 2.37h1.86l.38-2.37zm-.58 2.14H.58L.38 2.5c.23.25.56.4.93.4s.7-.15.93-.4l-.2 1.24zM2.05.23H.57c.02.05.04.1.07.15l.08.15-.27.28C.43.83.43.86.45.89c.02.02.05.02.07 0L.8.61l.14.08c.05.03.1.05.16.07l.16.04v.4c0 .03.02.05.05.05.03 0 .06-.02.06-.05V.8l.15-.04c.06-.02.11-.04.16-.07l.15-.08.27.28c.02.02.05.02.07 0 .02-.03.02-.06 0-.08L1.9.53l.08-.15c.03-.05.05-.1.07-.15zM2.3 0c0 .18-.05.34-.13.49l.16.16c.11.11.11.29 0 .4-.11.1-.28.1-.39 0L1.79.89c-.07.03-.13.06-.21.08v.23c0 .15-.12.28-.27.28-.15 0-.27-.13-.27-.28V.97C.96.95.9.92.83.89l-.15.16c-.11.1-.28.1-.39 0-.1-.11-.1-.29 0-.4L.45.49C.37.34.32.18.32 0H2.3z" style="fill:#fea5b9"/></svg>