<!-- Generated by IcoMoon.io -->
<svg version="1.1" xmlns="http://www.w3.org/2000/svg" width="32" height="32" viewBox="0 0 32 32">
<title>right-arrow</title>
<path d="M18.689 6.276c-0.18-0.174-0.425-0.281-0.695-0.281-0.552 0-1 0.448-1 1 0 0.287 0.121 0.546 0.315 0.729l0.001 0 7.671 7.276h-19.982c-0.552 0-1 0.448-1 1s0.448 1 1 1v0h19.95l-7.639 7.276c-0.2 0.183-0.325 0.446-0.325 0.738 0 0.552 0.448 1 1 1 0.275 0 0.524-0.111 0.704-0.29l-0 0 8.724-8.31c0.378-0.378 0.586-0.88 0.586-1.414s-0.208-1.037-0.604-1.431z"></path>
</svg>
